<svg xmlns="http://www.w3.org/2000/svg" width="112" height="33.601" viewBox="0 0 112 33.601"><defs><style>.a{fill:#b6b6b6;}.b{fill:#fff;}.c{fill:#ce0e2d;}</style></defs><g transform="translate(-133.945 -402.699)"><g transform="translate(133.945 402.699)"><path class="a" d="M238.051,402.7H140.945c-.255,0-.509.007-.764.01a10.951,10.951,0,0,0-1.661.147,5.526,5.526,0,0,0-1.577.52,5.339,5.339,0,0,0-1.342.977,5.19,5.19,0,0,0-.977,1.344,5.47,5.47,0,0,0-.518,1.578,10.776,10.776,0,0,0-.148,1.66c-.008.255-.008.509-.013.764v19.6c0,.255.005.509.013.764a10.776,10.776,0,0,0,.148,1.66,5.46,5.46,0,0,0,.518,1.579,5.146,5.146,0,0,0,.977,1.339,5.2,5.2,0,0,0,1.342.978,5.559,5.559,0,0,0,1.577.524,11.172,11.172,0,0,0,1.661.147q.382.009.764.009h98.005c.255,0,.509,0,.764-.009a11.022,11.022,0,0,0,1.658-.147,5.647,5.647,0,0,0,1.582-.524,5.207,5.207,0,0,0,1.341-.977,5.3,5.3,0,0,0,.98-1.339,5.477,5.477,0,0,0,.509-1.579,11.2,11.2,0,0,0,.154-1.66V429.3c.007-.3.007-.6.007-.907V410.6c0-.3,0-.605-.007-.905v-.764a11.205,11.205,0,0,0-.154-1.66,5.488,5.488,0,0,0-.509-1.578,5.363,5.363,0,0,0-2.321-2.322,5.612,5.612,0,0,0-1.583-.52,10.817,10.817,0,0,0-1.658-.147c-.255,0-.509-.009-.764-.01h-.9Z" transform="translate(-133.945 -402.699)"/><path d="M145.794,440.429c-.255,0-.5,0-.75-.008a10.521,10.521,0,0,1-1.55-.135,4.874,4.874,0,0,1-1.374-.454,4.477,4.477,0,0,1-1.158-.843,4.412,4.412,0,0,1-.849-1.158,4.742,4.742,0,0,1-.451-1.374,10.3,10.3,0,0,1-.138-1.555c-.005-.175-.012-.757-.012-.757V414.555s.008-.574.012-.742a10.258,10.258,0,0,1,.137-1.552,4.771,4.771,0,0,1,.451-1.378,4.452,4.452,0,0,1,.842-1.159,4.616,4.616,0,0,1,1.162-.849,4.827,4.827,0,0,1,1.371-.451,10.465,10.465,0,0,1,1.555-.136l.748-.01h98l.757.01a10.268,10.268,0,0,1,1.541.135,4.921,4.921,0,0,1,1.386.454,4.641,4.641,0,0,1,2,2.007,4.783,4.783,0,0,1,.444,1.367,10.776,10.776,0,0,1,.144,1.565v.738c.007.311.007.607.007.905v17.784c0,.3,0,.594-.007.892v.77a10.547,10.547,0,0,1-.142,1.537,4.757,4.757,0,0,1-.448,1.385,4.546,4.546,0,0,1-.842,1.149,4.487,4.487,0,0,1-1.161.849,4.858,4.858,0,0,1-1.383.456,10.4,10.4,0,0,1-1.55.135c-.243.006-.5.009-.744.009h-.9Z" transform="translate(-138.79 -407.554)"/></g><g transform="translate(168.769 407.596)"><path class="b" d="M401.788,451.422h2.98l-.085.8h-1.9v1.227h1.788v.748h-1.788v1.358h2.007l-.072.81h-2.929Z" transform="translate(-401.788 -449.985)"/><path class="b" d="M429.029,453.845l-1.538-2.423h1.124l.971,1.689,1.028-1.689h1.1l-1.527,2.393,1.655,2.557H430.7l-1.118-1.867-1.121,1.867h-1.1Z" transform="translate(-424.039 -449.985)"/><path class="b" d="M466.4,451.421h1.387a2.418,2.418,0,0,1,1.483.391,1.332,1.332,0,0,1,.516,1.129,1.612,1.612,0,0,1-.224.858,1.47,1.47,0,0,1-.624.56,2.065,2.065,0,0,1-.916.2,3.376,3.376,0,0,1-.629-.061v1.876H466.4Zm2.149,2.172a.822.822,0,0,0,.241-.637.7.7,0,0,0-.255-.612,1.3,1.3,0,0,0-.759-.185H467.4v1.612a2.669,2.669,0,0,0,.441.044,1.025,1.025,0,0,0,.711-.222Z" transform="translate(-458.003 -449.985)"/><path class="b" d="M498.769,451.422h.995v4.112h1.982l-.071.838h-2.905Z" transform="translate(-486.161 -449.985)"/><path class="b" d="M524.244,446.5a2.078,2.078,0,0,1-.843-.873,2.807,2.807,0,0,1-.29-1.308,2.879,2.879,0,0,1,.311-1.369,2.178,2.178,0,0,1,.893-.906,2.829,2.829,0,0,1,1.379-.319,2.631,2.631,0,0,1,1.311.31,2.065,2.065,0,0,1,.838.87,2.8,2.8,0,0,1,.288,1.3,2.9,2.9,0,0,1-.314,1.382,2.183,2.183,0,0,1-.9.908,2.806,2.806,0,0,1-1.365.317A2.63,2.63,0,0,1,524.244,446.5Zm2.181-.687a1.393,1.393,0,0,0,.5-.63,2.362,2.362,0,0,0,.17-.917,2.593,2.593,0,0,0-.147-.9,1.337,1.337,0,0,0-.47-.632,1.371,1.371,0,0,0-.829-.236,1.392,1.392,0,0,0-.824.239,1.465,1.465,0,0,0-.509.641,2.26,2.26,0,0,0-.17.883,2.451,2.451,0,0,0,.16.912,1.4,1.4,0,0,0,.489.637,1.358,1.358,0,0,0,.81.234,1.411,1.411,0,0,0,.82-.231Zm-1.443-4.389.9-1.07.988.085L525.6,441.5Z" transform="translate(-507.337 -440.357)"/><path class="b" d="M568.775,451.421H570.4a2.152,2.152,0,0,1,1.33.339,1.162,1.162,0,0,1,.445.976,1.5,1.5,0,0,1-.533,1.173,1.678,1.678,0,0,1-.458.273l1.507,2.184h-1.141l-1.227-1.924h-.55v1.924h-.994Zm1.415,2.291a1.1,1.1,0,0,0,.5-.111.814.814,0,0,0,.339-.312.888.888,0,0,0,.121-.468.585.585,0,0,0-.211-.5,1.026,1.026,0,0,0-.622-.16h-.554v1.552Z" transform="translate(-547.064 -449.984)"/><path class="b" d="M602.348,455.095h-1.894l-.448,1.254h-1l1.921-4.952h.977l1.962,4.952H602.8Zm-1.62-.764h1.343l-.475-1.309q-.1-.27-.2-.632-.085.3-.194.629Z" transform="translate(-573.365 -449.964)"/><path class="b" d="M641.046,451.422h.995v4.112h1.982l-.071.838h-2.905Z" transform="translate(-609.94 -449.985)"/><path class="b" d="M666.52,455.671a2.078,2.078,0,0,1-.843-.873,2.8,2.8,0,0,1-.29-1.308,2.877,2.877,0,0,1,.311-1.369,2.177,2.177,0,0,1,.893-.906,2.829,2.829,0,0,1,1.379-.319,2.631,2.631,0,0,1,1.311.31,2.064,2.064,0,0,1,.837.87,2.8,2.8,0,0,1,.289,1.3,2.9,2.9,0,0,1-.314,1.382,2.181,2.181,0,0,1-.9.908,2.808,2.808,0,0,1-1.365.317,2.631,2.631,0,0,1-1.31-.311Zm2.181-.687a1.4,1.4,0,0,0,.5-.63,2.361,2.361,0,0,0,.17-.917,2.592,2.592,0,0,0-.147-.9,1.337,1.337,0,0,0-.47-.632,1.37,1.37,0,0,0-.829-.236,1.391,1.391,0,0,0-.823.239,1.463,1.463,0,0,0-.509.641,2.258,2.258,0,0,0-.17.883,2.448,2.448,0,0,0,.16.912,1.4,1.4,0,0,0,.489.637,1.358,1.358,0,0,0,.81.234,1.412,1.412,0,0,0,.819-.227Z" transform="translate(-631.115 -449.528)"/><path class="b" d="M727.851,451.422h2.977l-.085.8h-1.9v1.227h1.788v.748h-1.788v1.358h2.007l-.072.81h-2.928Z" transform="translate(-685.459 -449.985)"/><path class="b" d="M758.213,451.422h1.145l2.291,3.671q-.034-.615-.034-1.008v-2.663h.915v4.95h-1.111l-2.328-3.729q.038.646.037,1.162v2.567h-.912Z" transform="translate(-711.874 -449.985)"/></g><g transform="translate(141.286 408.81)"><g transform="translate(27.656 8.784)"><path class="b" d="M409.654,529.794h-3.887l-.951,2.6h-1.709l3.807-9.711h1.612l3.893,9.711h-1.8Zm-3.394-1.32h2.9l-1.039-2.781q-.214-.576-.424-1.273-.188.617-.408,1.26Z" transform="translate(-403.107 -521.98)"/><path class="b" d="M480.328,542.627q0-.8-.053-1.769h1.555a7.8,7.8,0,0,1,.12.918,2.93,2.93,0,0,1,2.211-1.052,2.5,2.5,0,0,1,2.336,1.518,4.619,4.619,0,0,1,.378,2,4.951,4.951,0,0,1-.433,2.165,3.093,3.093,0,0,1-1.209,1.358,3.448,3.448,0,0,1-1.8.462,4.423,4.423,0,0,1-1.454-.248v2.991l-1.655.141Zm4.353,3.7a3.3,3.3,0,0,0,.509-1.987,2.916,2.916,0,0,0-.419-1.759,1.335,1.335,0,0,0-1.116-.546,1.8,1.8,0,0,0-.891.227,3.356,3.356,0,0,0-.777.61v3.874a2.511,2.511,0,0,0,.576.191,3.1,3.1,0,0,0,.651.07A1.72,1.72,0,0,0,484.681,546.323Z" transform="translate(-470.242 -537.676)"/><path class="b" d="M538.839,542.627q0-.8-.053-1.769h1.555a7.809,7.809,0,0,1,.12.918,2.93,2.93,0,0,1,2.211-1.052,2.5,2.5,0,0,1,2.336,1.518,4.619,4.619,0,0,1,.378,2,4.952,4.952,0,0,1-.433,2.165,3.093,3.093,0,0,1-1.209,1.358,3.445,3.445,0,0,1-1.8.462,4.423,4.423,0,0,1-1.454-.248v2.991l-1.656.141Zm4.353,3.7a3.3,3.3,0,0,0,.509-1.987,2.915,2.915,0,0,0-.419-1.759,1.336,1.336,0,0,0-1.116-.546,1.8,1.8,0,0,0-.891.227,3.356,3.356,0,0,0-.777.61v3.874a2.514,2.514,0,0,0,.576.191,3.091,3.091,0,0,0,.651.07,1.72,1.72,0,0,0,1.467-.68Z" transform="translate(-521.146 -537.676)"/><path class="b" d="M598.691,531.083a4.019,4.019,0,0,1-1.649-1.7,5.583,5.583,0,0,1-.576-2.614,5.45,5.45,0,0,1,.664-2.778,4.272,4.272,0,0,1,1.807-1.716,5.636,5.636,0,0,1,2.563-.573,6.766,6.766,0,0,1,1.6.184,6.934,6.934,0,0,1,1.418.509l-.424,1.273a5.853,5.853,0,0,0-2.52-.63,3.524,3.524,0,0,0-1.773.432,2.938,2.938,0,0,0-1.183,1.273,4.461,4.461,0,0,0-.424,2.024,4.891,4.891,0,0,0,.325,1.843,2.722,2.722,0,0,0,1.025,1.273,3.108,3.108,0,0,0,1.766.469,5.836,5.836,0,0,0,.965-.08,5.022,5.022,0,0,0,.905-.234v-1.964h-2.244v-1.286h3.853v4.088a8.622,8.622,0,0,1-1.745.594,8.207,8.207,0,0,1-1.819.208A5.153,5.153,0,0,1,598.691,531.083Z" transform="translate(-571.327 -521.129)"/><path class="b" d="M674.614,548.085a6.383,6.383,0,0,1-.114-.959,3.192,3.192,0,0,1-1,.774,2.958,2.958,0,0,1-1.384.318,2.607,2.607,0,0,1-1.136-.244,1.893,1.893,0,0,1-.814-.737,2.259,2.259,0,0,1-.3-1.2,2.067,2.067,0,0,1,.758-1.679,3.987,3.987,0,0,1,2.526-.627,9.178,9.178,0,0,1,1.315.094v-.141a1.824,1.824,0,0,0-.409-1.35,1.628,1.628,0,0,0-1.173-.392,4.6,4.6,0,0,0-1.133.154,5.967,5.967,0,0,0-1.059.368l-.261-1.207a6.351,6.351,0,0,1,1.167-.368,6.764,6.764,0,0,1,1.527-.17,4,4,0,0,1,1.6.285,2.093,2.093,0,0,1,1.025.978,4,4,0,0,1,.369,1.867v2.88q0,.449.053,1.358Zm-.992-1.341a2.644,2.644,0,0,0,.849-.617v-1.341a10.648,10.648,0,0,0-1.1-.074,2.252,2.252,0,0,0-1.417.332,1.113,1.113,0,0,0-.392.894,1.018,1.018,0,0,0,.284.794,1.111,1.111,0,0,0,.774.255,2.327,2.327,0,0,0,1.005-.24Z" transform="translate(-635.187 -537.675)"/><path class="b" d="M729.051,525.951v-8.545l1.648-.134v8.384a1.038,1.038,0,0,0,.158.653.61.61,0,0,0,.5.191,1.854,1.854,0,0,0,.435-.074l.194,1.188a2.827,2.827,0,0,1-.574.151,3.864,3.864,0,0,1-.64.057Q729.051,527.818,729.051,525.951Z" transform="translate(-686.674 -517.272)"/><path class="b" d="M760.753,525.951v-8.545l1.649-.134v8.384a1.039,1.039,0,0,0,.158.653.61.61,0,0,0,.5.191,1.861,1.861,0,0,0,.435-.074l.194,1.188a2.828,2.828,0,0,1-.574.151,3.877,3.877,0,0,1-.64.057Q760.753,527.818,760.753,525.951Z" transform="translate(-714.255 -517.272)"/><path class="b" d="M793.287,544.685h-4.731q.114,2.272,2.165,2.272a4.591,4.591,0,0,0,1.043-.124,6.228,6.228,0,0,0,1.018-.332l.361,1.133a6.157,6.157,0,0,1-2.727.59,3.98,3.98,0,0,1-1.944-.435,2.8,2.8,0,0,1-1.188-1.253,4.461,4.461,0,0,1-.4-1.97,4.657,4.657,0,0,1,.424-2.064,3.07,3.07,0,0,1,1.176-1.32,3.29,3.29,0,0,1,1.739-.456,2.923,2.923,0,0,1,1.712.479,2.864,2.864,0,0,1,1.018,1.273,4.551,4.551,0,0,1,.331,1.762Zm-1.612-1.052a2.06,2.06,0,0,0-.435-1.3,1.328,1.328,0,0,0-1.039-.432,1.4,1.4,0,0,0-1.049.435,2.314,2.314,0,0,0-.546,1.294Z" transform="translate(-736.991 -537.676)"/><path class="b" d="M846.017,542.673q0-.594-.053-1.817h1.548q.041.3.077.72t.05.679a6.065,6.065,0,0,1,.566-.8,2.323,2.323,0,0,1,.651-.53,1.727,1.727,0,0,1,.849-.2,2.356,2.356,0,0,1,.657.081l-.208,1.434a1.828,1.828,0,0,0-.536-.074,1.76,1.76,0,0,0-1.018.3,4.094,4.094,0,0,0-.933.982v4.644h-1.649Z" transform="translate(-788.387 -537.675)"/><path class="b" d="M883.423,551.945a4.052,4.052,0,0,1-.594-.144l.3-1.206a4.253,4.253,0,0,0,.424.09,2.873,2.873,0,0,0,.482.043q1.1,0,1.649-1.414l.107-.268-2.667-7.292H884.9l1.341,4.073a13.2,13.2,0,0,1,.424,1.6q.188-.784.442-1.568l1.358-4.108h1.669l-2.66,7.325a7.52,7.52,0,0,1-.811,1.676,2.841,2.841,0,0,1-1.028.944,3.069,3.069,0,0,1-1.431.308A4.5,4.5,0,0,1,883.423,551.945Z" transform="translate(-820.457 -538.573)"/></g><path class="c" d="M6.014,0C1.612,0,0,1.612,0,6.014v9.344c0,4.4,1.612,6.014,6.014,6.014h9.344c4.4,0,6.017-1.612,6.017-6.014V6.014c0-4.4-1.61-6.014-6.017-6.014Z"/><path class="b" d="M210.589,531.936h.567v2.8h-.567V533.6h-1.28v1.135h-.567v-2.8h.567v1.128h1.28Zm3.194,1.6c0,.454-.226.7-.636.7s-.639-.25-.639-.716v-1.579h-.567v1.6a1.109,1.109,0,0,0,1.2,1.237,1.125,1.125,0,0,0,1.21-1.26v-1.577h-.567Zm6.553.322-.635-1.922h-.462l-.635,1.922-.618-1.92h-.6l.974,2.793h.469l.636-1.835.636,1.835h.473l.972-2.793h-.588Zm2.223-.33h1.031v-.509H222.56v-.572h1.5v-.509H222v2.791h2.11v-.509h-1.551Zm2.227,1.2h.559v-2.791h-.559Zm-9.316-.58-.255.582h-.579l1.231-2.793h.5l1.226,2.793H217l-.255-.582Zm.211-.5h.857l-.43-1Z" transform="translate(-206.357 -521.246)"/><path class="b" d="M248.791,480.758a3.564,3.564,0,0,1-3.558-3.558h.5a3.055,3.055,0,0,0,6.109,0h.5a3.564,3.564,0,0,1-3.557,3.558Z" transform="translate(-238.103 -473.627)"/></g></g></svg>