<svg xmlns="http://www.w3.org/2000/svg" width="112" height="37.437" viewBox="0 0 112 37.437"><defs><style>.a{fill:#a6a6a6;}.b{fill:#fff;}</style></defs><path class="a" d="M103.087,0H7.9c-.287,0-.574.008-.862.011A12.369,12.369,0,0,0,5.164.179,6.239,6.239,0,0,0,3.385.766,6.031,6.031,0,0,0,1.87,1.87a5.858,5.858,0,0,0-1.1,1.517A6.178,6.178,0,0,0,.182,5.169,12.158,12.158,0,0,0,.014,7.042C.006,7.329,0,7.616,0,7.9V29.539c0,.287.006.574.014.862a12.158,12.158,0,0,0,.168,1.875,6.166,6.166,0,0,0,.584,1.783,5.811,5.811,0,0,0,1.1,1.511,5.873,5.873,0,0,0,1.515,1.1,6.272,6.272,0,0,0,1.78.591,12.6,12.6,0,0,0,1.875.166q.431.01.862.01h96.2c.287,0,.574,0,.862-.01a12.43,12.43,0,0,0,1.872-.166,6.369,6.369,0,0,0,1.786-.591,5.876,5.876,0,0,0,1.514-1.1,5.985,5.985,0,0,0,1.106-1.511,6.182,6.182,0,0,0,.579-1.783,12.641,12.641,0,0,0,.173-1.873v-.862c.008-.34.008-.678.008-1.023V8.926c0-.343,0-.683-.008-1.021V7.043a12.637,12.637,0,0,0-.173-1.873,6.2,6.2,0,0,0-.579-1.782A6.052,6.052,0,0,0,108.622.766a6.334,6.334,0,0,0-1.786-.587,12.209,12.209,0,0,0-1.872-.166c-.287,0-.574-.011-.862-.011h-1.015Z"/><path d="M7.96,36.677c-.287,0-.564,0-.846-.01a11.878,11.878,0,0,1-1.749-.157A5.507,5.507,0,0,1,3.814,36a5.059,5.059,0,0,1-1.308-.952,4.978,4.978,0,0,1-.957-1.307,5.355,5.355,0,0,1-.508-1.551,11.619,11.619,0,0,1-.156-1.755c-.006-.2-.013-.855-.013-.855V7.96s.011-.647.015-.839A11.583,11.583,0,0,1,1.041,5.37,5.387,5.387,0,0,1,1.55,3.814,5.03,5.03,0,0,1,2.5,2.505a5.21,5.21,0,0,1,1.312-.957,5.45,5.45,0,0,1,1.548-.509A11.781,11.781,0,0,1,7.116.886L7.961.875h96.191l.855.011a11.592,11.592,0,0,1,1.739.152,5.558,5.558,0,0,1,1.564.513,5.236,5.236,0,0,1,2.26,2.265,5.4,5.4,0,0,1,.5,1.543,12.163,12.163,0,0,1,.163,1.766v.833c.008.351.008.685.008,1.021v19.59c0,.34,0,.67-.008,1.006v.87a11.917,11.917,0,0,1-.16,1.735,5.372,5.372,0,0,1-.505,1.563,5.13,5.13,0,0,1-.951,1.3,5.066,5.066,0,0,1-1.31.957,5.487,5.487,0,0,1-1.561.515,11.74,11.74,0,0,1-1.75.152c-.274.007-.561.01-.84.01H7.96Z" transform="translate(-0.055 -0.056)"/><g transform="translate(9.334 8.162)"><g transform="translate(0)"><path class="b" d="M23.822,19.9a4.632,4.632,0,0,1,2.2-3.887,4.742,4.742,0,0,0-3.733-2.02c-1.572-.165-3.1.94-3.9.94-.817,0-2.05-.924-3.377-.9a4.978,4.978,0,0,0-4.185,2.551c-1.81,3.134-.46,7.74,1.274,10.274.867,1.244,1.881,2.626,3.208,2.577,1.3-.054,1.783-.828,3.351-.828s2.01.828,3.361.8c1.393-.023,2.271-1.244,3.108-2.5a10.26,10.26,0,0,0,1.422-2.895A4.476,4.476,0,0,1,23.822,19.9Z" transform="translate(-9.972 -9.056)"/><path class="b" d="M21.829,11.987A4.561,4.561,0,0,0,22.873,8.72a4.64,4.64,0,0,0-3,1.554A4.339,4.339,0,0,0,18.8,13.42,3.837,3.837,0,0,0,21.829,11.987Z" transform="translate(-10.536 -8.72)"/></g><g transform="translate(22.891 8.566)"><path class="b" d="M41.8,26.56H37.369L36.3,29.7H34.428l4.2-11.624h1.95L44.77,29.7H42.861ZM37.826,25.11h3.512l-1.732-5.1h-.049Z" transform="translate(-34.428 -17.886)"/><path class="b" d="M54.614,25.674C54.614,28.308,53.2,30,51.078,30a2.872,2.872,0,0,1-2.666-1.483h-.04v4.2h-1.74V21.436h1.684v1.409h.032a3.006,3.006,0,0,1,2.7-1.5C53.2,21.348,54.614,23.048,54.614,25.674Zm-1.788,0c0-1.715-.886-2.843-2.239-2.843-1.329,0-2.223,1.149-2.223,2.843s.894,2.851,2.223,2.851c1.353,0,2.237-1.12,2.237-2.851Z" transform="translate(-35.209 -18.094)"/><path class="b" d="M64.579,25.674c0,2.634-1.409,4.325-3.536,4.325a2.872,2.872,0,0,1-2.666-1.483h-.04v4.2H56.6V21.436h1.684v1.409h.032a3.006,3.006,0,0,1,2.7-1.5C63.161,21.348,64.579,23.048,64.579,25.674Zm-1.788,0c0-1.715-.886-2.843-2.239-2.843-1.329,0-2.223,1.149-2.223,2.843s.894,2.851,2.223,2.851c1.353,0,2.239-1.12,2.239-2.851Z" transform="translate(-35.848 -18.094)"/><path class="b" d="M71.589,26.449c.129,1.149,1.244,1.91,2.776,1.91,1.467,0,2.521-.757,2.521-1.8,0-.9-.637-1.443-2.142-1.812l-1.507-.363c-2.135-.516-3.126-1.513-3.126-3.133,0-2.006,1.748-3.383,4.229-3.383,2.456,0,4.139,1.378,4.2,3.383H76.789c-.105-1.16-1.064-1.86-2.465-1.86s-2.36.708-2.36,1.739c0,.821.613,1.3,2.106,1.675l1.281.314c2.385.564,3.375,1.522,3.375,3.222,0,2.175-1.732,3.536-4.487,3.536-2.578,0-4.318-1.33-4.43-3.432Z" transform="translate(-36.693 -17.872)"/><path class="b" d="M83.142,19.3v2.006h1.611v1.378H83.142v4.672c0,.726.323,1.064,1.031,1.064a5.432,5.432,0,0,0,.574-.04v1.369a4.778,4.778,0,0,1-.966.08c-1.715,0-2.385-.644-2.385-2.288V22.683H80.163V21.306H81.4V19.3Z" transform="translate(-37.355 -17.964)"/><path class="b" d="M86.065,25.673c0-2.666,1.57-4.341,4.021-4.341s4.021,1.675,4.021,4.341-1.555,4.341-4.021,4.341S86.065,28.346,86.065,25.673Zm6.267,0c0-1.829-.839-2.908-2.248-2.908s-2.247,1.087-2.247,2.908c0,1.836.838,2.907,2.247,2.907S92.332,27.509,92.332,25.673Z" transform="translate(-37.733 -18.093)"/><path class="b" d="M96.186,21.436h1.659v1.443h.04a2.021,2.021,0,0,1,2.038-1.532,2.68,2.68,0,0,1,.6.065v1.627a2.432,2.432,0,0,0-.781-.105,1.753,1.753,0,0,0-1.816,1.95v5.027H96.186Z" transform="translate(-38.381 -18.094)"/><path class="b" d="M108.859,27.42c-.234,1.538-1.732,2.594-3.649,2.594-2.465,0-4-1.651-4-4.3s1.538-4.382,3.925-4.382c2.344,0,3.819,1.61,3.819,4.18v.6h-5.985v.105a2.208,2.208,0,0,0,2.279,2.4,1.915,1.915,0,0,0,1.957-1.192Zm-5.878-2.529h4.237a2.038,2.038,0,0,0-2.078-2.151,2.145,2.145,0,0,0-2.158,2.151Z" transform="translate(-38.703 -18.093)"/></g></g><g transform="translate(33.388 7.506)"><path class="b" d="M37.688,8.731a2.471,2.471,0,0,1,2.628,2.776,2.482,2.482,0,0,1-2.628,2.81H35.671V8.731Zm-1.149,4.8h1.053a1.756,1.756,0,0,0,1.842-2.01,1.76,1.76,0,0,0-1.842-2H36.539Z" transform="translate(-35.671 -8.064)"/><path class="b" d="M45.453,13.266a1.711,1.711,0,0,1-1.827,1.22,1.915,1.915,0,0,1-1.947-2.175,1.944,1.944,0,0,1,1.943-2.2c1.173,0,1.88.8,1.88,2.124v.287H42.526v.047a1.114,1.114,0,0,0,1.123,1.207,1.01,1.01,0,0,0,1-.511Zm-2.926-1.358h2.129a1.017,1.017,0,0,0-1.038-1.092,1.078,1.078,0,0,0-1.091,1.092Z" transform="translate(-36.054 -8.153)"/><path class="b" d="M48.485,10.108c.948,0,1.568.441,1.649,1.184h-.8c-.077-.309-.383-.506-.851-.506s-.818.22-.818.549c0,.252.213.411.67.515l.7.162c.8.186,1.177.53,1.177,1.149,0,.794-.739,1.324-1.746,1.324s-1.656-.453-1.73-1.2h.833a.855.855,0,0,0,.917.526c.518,0,.886-.232.886-.569,0-.252-.2-.415-.619-.515l-.735-.17c-.8-.191-1.173-.549-1.173-1.177C46.848,10.634,47.533,10.108,48.485,10.108Z" transform="translate(-36.379 -8.153)"/><path class="b" d="M54.395,11.567a.941.941,0,0,0-1-.716c-.7,0-1.123.534-1.123,1.436s.43,1.459,1.123,1.459a.916.916,0,0,0,1-.693H55.2a1.649,1.649,0,0,1-1.8,1.436,1.936,1.936,0,0,1-1.978-2.2A1.921,1.921,0,0,1,53.4,10.112a1.664,1.664,0,0,1,1.8,1.459Z" transform="translate(-36.678 -8.153)"/><path class="b" d="M56.345,13.075c0-.759.565-1.2,1.568-1.258l1.142-.066v-.364c0-.445-.294-.7-.862-.7-.464,0-.786.17-.879.468H56.51c.085-.724.766-1.188,1.723-1.188,1.053,0,1.652.526,1.652,1.417v2.88h-.807v-.589h-.066a1.418,1.418,0,0,1-1.266.661,1.273,1.273,0,0,1-1.4-1.265Zm2.709-.36v-.348l-1.029.066c-.58.039-.843.236-.843.608s.329.6.781.6a.994.994,0,0,0,1.091-.921ZM57.73,9.351,58.7,8.02h.975L58.59,9.351Z" transform="translate(-36.994 -8.02)"/><path class="b" d="M61.516,10.19h.8v.646h.062a1.143,1.143,0,0,1,1.138-.716,1.748,1.748,0,0,1,.371.034v.82a2.279,2.279,0,0,0-.464-.051.988.988,0,0,0-1.076,1v2.489h-.832Z" transform="translate(-37.325 -8.154)"/><path class="b" d="M64.855,14.827h.851c.071.305.422.5.983.5.693,0,1.1-.329,1.1-.886v-.809h-.062a1.418,1.418,0,0,1-1.3.708c-1.076,0-1.741-.832-1.741-2.094,0-1.285.67-2.129,1.75-2.129a1.461,1.461,0,0,1,1.326.746h.066V10.2h.8v4.249c0,.964-.755,1.576-1.947,1.576C65.625,16.015,64.944,15.543,64.855,14.827Zm2.954-2.585c0-.84-.435-1.378-1.143-1.378s-1.118.538-1.118,1.378.4,1.378,1.118,1.378S67.809,13.086,67.809,12.242Z" transform="translate(-37.528 -8.154)"/><path class="b" d="M70.053,13.213c0-.759.565-1.2,1.568-1.258l1.142-.066v-.364c0-.445-.294-.7-.862-.7-.464,0-.786.17-.879.468h-.805c.085-.724.766-1.188,1.723-1.188,1.053,0,1.652.526,1.652,1.417v2.883h-.8v-.593h-.066a1.418,1.418,0,0,1-1.266.661,1.273,1.273,0,0,1-1.405-1.262Zm2.709-.36V12.5l-1.029.066c-.58.039-.843.236-.843.608s.329.6.781.6a.994.994,0,0,0,1.091-.921Z" transform="translate(-37.871 -8.153)"/><path class="b" d="M75.265,8.437H76.1V14.3h-.832Z" transform="translate(-38.205 -8.046)"/><path class="b" d="M77.389,12.294a2,2,0,1,1,3.976,0,2,2,0,1,1-3.976,0Zm3.12,0c0-.913-.411-1.447-1.131-1.447s-1.13.534-1.13,1.447.407,1.451,1.13,1.451S80.508,13.212,80.508,12.294Z" transform="translate(-38.34 -8.153)"/><path class="b" d="M88.82,13.266a1.711,1.711,0,0,1-1.827,1.22,1.915,1.915,0,0,1-1.947-2.175,1.944,1.944,0,0,1,1.943-2.2c1.173,0,1.88.8,1.88,2.124v.287H85.894v.047a1.114,1.114,0,0,0,1.123,1.207,1.01,1.01,0,0,0,1-.511Zm-2.926-1.358h2.129a1.017,1.017,0,0,0-1.038-1.092,1.078,1.078,0,0,0-1.091,1.092Z" transform="translate(-38.829 -8.153)"/><path class="b" d="M90.327,10.189h.8v.67h.062a1.262,1.262,0,0,1,1.258-.751,1.371,1.371,0,0,1,1.459,1.568v2.731h-.829V11.885c0-.678-.294-1.014-.909-1.014a.967.967,0,0,0-1.005,1.067v2.47h-.832Z" transform="translate(-39.169 -8.153)"/><path class="b" d="M101.517,13.266a1.711,1.711,0,0,1-1.827,1.22,1.915,1.915,0,0,1-1.947-2.175,1.944,1.944,0,0,1,1.943-2.2c1.173,0,1.88.8,1.88,2.124v.287H98.59v.047a1.114,1.114,0,0,0,1.121,1.21,1.01,1.01,0,0,0,1-.511Zm-2.926-1.358h2.129a1.017,1.017,0,0,0-1.038-1.092,1.078,1.078,0,0,0-1.091,1.092Z" transform="translate(-39.642 -8.153)"/><path class="b" d="M103.064,8.437h.832V14.3h-.832Z" transform="translate(-39.983 -8.046)"/></g></svg>