<svg xmlns="http://www.w3.org/2000/svg" xmlns:xlink="http://www.w3.org/1999/xlink" width="112" height="33.185" viewBox="0 0 112 33.185"><defs><style>.a{fill:#a6a6a6;}.b,.i,.j{fill:#fff;}.c{fill:url(#a);}.d{fill:url(#b);}.e{fill:url(#c);}.f{fill:url(#d);}.g{opacity:0.2;}.g,.h,.i{isolation:isolate;}.h{opacity:0.12;}.i{opacity:0.25;}.j{stroke:#fff;stroke-miterlimit:10;stroke-width:0.2px;}</style><linearGradient id="a" x1="0.915" y1="6.614" x2="-0.383" y2="5.945" gradientUnits="objectBoundingBox"><stop offset="0" stop-color="#00a0ff"/><stop offset="0.007" stop-color="#00a1ff"/><stop offset="0.26" stop-color="#00beff"/><stop offset="0.512" stop-color="#00d2ff"/><stop offset="0.76" stop-color="#00dfff"/><stop offset="1" stop-color="#00e3ff"/></linearGradient><linearGradient id="b" x1="1.076" y1="17.098" x2="-1.305" y2="17.098" gradientUnits="objectBoundingBox"><stop offset="0" stop-color="#ffe000"/><stop offset="0.409" stop-color="#ffbd00"/><stop offset="0.775" stop-color="orange"/><stop offset="1" stop-color="#ff9c00"/></linearGradient><linearGradient id="c" x1="0.862" y1="10.863" x2="-0.501" y2="9.093" gradientUnits="objectBoundingBox"><stop offset="0" stop-color="#ff3a44"/><stop offset="1" stop-color="#c31162"/></linearGradient><linearGradient id="d" x1="-0.188" y1="13.583" x2="0.421" y2="12.793" gradientUnits="objectBoundingBox"><stop offset="0" stop-color="#32a071"/><stop offset="0.068" stop-color="#2da771"/><stop offset="0.476" stop-color="#15cf74"/><stop offset="0.801" stop-color="#06e775"/><stop offset="1" stop-color="#00f076"/></linearGradient></defs><g transform="translate(-10 -10)"><g transform="translate(10 10)"><rect width="112" height="33.185" rx="5"/><path class="a" d="M117.852,10.664a3.488,3.488,0,0,1,3.485,3.485V39.037a3.488,3.488,0,0,1-3.485,3.485H14.148a3.488,3.488,0,0,1-3.485-3.485V14.148a3.488,3.488,0,0,1,3.485-3.485h103.7m0-.664H14.148A4.158,4.158,0,0,0,10,14.148V39.037a4.158,4.158,0,0,0,4.148,4.148h103.7A4.158,4.158,0,0,0,122,39.037V14.148A4.158,4.158,0,0,0,117.852,10Z" transform="translate(-10 -10)"/><path class="b" d="M73.535,30.95a3.529,3.529,0,1,0,3.542,3.528,3.479,3.479,0,0,0-3.542-3.528Zm0,5.666a2.144,2.144,0,1,1,1.991-2.138,2.041,2.041,0,0,1-1.991,2.139ZM65.809,30.95a3.529,3.529,0,1,0,3.54,3.529,3.479,3.479,0,0,0-3.54-3.529Zm0,5.666A2.144,2.144,0,1,1,67.8,34.478a2.041,2.041,0,0,1-1.991,2.139Zm-9.187-4.584v1.5H60.2a3.124,3.124,0,0,1-.815,1.884,3.667,3.667,0,0,1-2.767,1.1,3.983,3.983,0,1,1,0-7.966,3.818,3.818,0,0,1,2.7,1.069l1.056-1.056a5.222,5.222,0,0,0-3.756-1.51,5.48,5.48,0,1,0,0,10.96,5.006,5.006,0,0,0,3.818-1.538,4.946,4.946,0,0,0,1.3-3.5,4.836,4.836,0,0,0-.081-.933ZM94.209,33.2a3.279,3.279,0,0,0-3.021-2.245,3.352,3.352,0,0,0-3.328,3.528,3.452,3.452,0,0,0,3.5,3.528,3.509,3.509,0,0,0,2.94-1.564l-1.2-.8a2.016,2.016,0,0,1-1.737.976,1.8,1.8,0,0,1-1.711-1.068L94.37,33.6Zm-4.815,1.177a1.935,1.935,0,0,1,1.845-2.058,1.365,1.365,0,0,1,1.31.748Zm-3.839,3.421H87.1V27.421H85.555Zm-2.54-6.055h-.053A2.445,2.445,0,0,0,81.1,30.95a3.531,3.531,0,0,0,0,7.057,2.4,2.4,0,0,0,1.857-.8h.053v.509c0,1.35-.721,2.072-1.884,2.072a1.952,1.952,0,0,1-1.782-1.257L78,39.089a3.363,3.363,0,0,0,3.131,2.087c1.817,0,3.355-1.069,3.355-3.676V31.165h-1.47Zm-1.777,4.878a2.146,2.146,0,0,1,0-4.276,2.145,2.145,0,0,1,0,4.277Zm20.227-9.2h-3.71V37.793H99.3V33.864h2.162a3.224,3.224,0,1,0,0-6.442Zm.04,5H99.3V28.865H101.5a1.782,1.782,0,1,1,0,3.555Zm9.568-1.489a2.908,2.908,0,0,0-2.763,1.587l1.375.574a1.466,1.466,0,0,1,1.414-.764,1.49,1.49,0,0,1,1.627,1.335v.106a3.424,3.424,0,0,0-1.612-.4c-1.481,0-2.989.814-2.989,2.334a2.4,2.4,0,0,0,2.575,2.282,2.184,2.184,0,0,0,1.975-1.018h.053v.8h1.494V33.8a2.842,2.842,0,0,0-3.147-2.868Zm-.187,5.685c-.509,0-1.214-.255-1.214-.88,0-.8.88-1.107,1.641-1.107a2.762,2.762,0,0,1,1.414.347,1.877,1.877,0,0,1-1.838,1.64Zm8.779-5.457-1.774,4.5h-.053l-1.842-4.5h-1.667l2.765,6.286-1.575,3.5h1.612l4.257-9.78Zm-13.943,6.635h1.554V27.422h-1.548Z" transform="translate(-17.007 -12.904)"/><g transform="translate(8.271 5.917)"><path class="c" d="M20.356,17.525a1.665,1.665,0,0,0-.384,1.166V37.04a1.664,1.664,0,0,0,.384,1.166l.061.059L30.7,27.986v-.242L20.42,17.465Z" transform="translate(-19.969 -17.189)"/><path class="d" d="M36.324,32.822,32.9,29.394v-.243l3.427-3.427.077.045,4.057,2.31a1.26,1.26,0,0,1,0,2.4L36.4,32.781Z" transform="translate(-22.172 -18.596)"/><path class="e" d="M34.279,33.505,30.775,30,20.435,40.34a1.35,1.35,0,0,0,1.725.051l12.119-6.886" transform="translate(-20.048 -19.324)"/><path class="f" d="M34.279,24.3,22.16,17.419a1.35,1.35,0,0,0-1.725.051l10.34,10.339Z" transform="translate(-20.048 -17.132)"/><g transform="translate(0 14.103)"><path class="g" d="M34.2,34.132,22.16,40.978a1.381,1.381,0,0,1-1.662.009h0l-.062.061h0l.061.06h0a1.381,1.381,0,0,0,1.662-.009l12.119-6.886Z" transform="translate(-20.049 -34.132)"/><path class="h" d="M20.356,42.079a1.664,1.664,0,0,1-.384-1.166v.122a1.661,1.661,0,0,0,.384,1.165l.062-.061Z" transform="translate(-19.969 -35.288)"/></g><path class="h" d="M41.161,31.078l-4.136,2.35.077.077L41.161,31.2a1.456,1.456,0,0,0,.873-1.2h0a1.543,1.543,0,0,1-.873,1.078Z" transform="translate(-22.875 -19.324)"/><path class="i" d="M22.081,17.541,38.26,26.733a1.543,1.543,0,0,1,.87,1.077h0a1.454,1.454,0,0,0-.87-1.2L22.081,17.42c-1.16-.658-2.108-.111-2.108,1.216v.122C19.973,17.43,20.922,16.882,22.081,17.541Z" transform="translate(-19.97 -17.133)"/></g></g><g transform="translate(44.247 15.684)"><path class="j" d="M51.28,21.978V17H52.8a2.476,2.476,0,0,1,1.836.692,2.437,2.437,0,0,1,.688,1.8,2.438,2.438,0,0,1-.688,1.8,2.476,2.476,0,0,1-1.836.692Zm.64-.612H52.8a1.867,1.867,0,0,0,1.366-.495,1.846,1.846,0,0,0,.5-1.383,1.73,1.73,0,0,0-1.867-1.878h-.882Z" transform="translate(-51.28 -16.877)"/><path class="j" d="M57.239,21.978V17h.64v4.978Z" transform="translate(-52.295 -16.877)"/><path class="j" d="M60.719,22.064a1.855,1.855,0,0,1-1.06-.355,1.638,1.638,0,0,1-.679-.994l.584-.236a1.338,1.338,0,0,0,.424.691,1.081,1.081,0,0,0,.727.281,1.162,1.162,0,0,0,.713-.218.7.7,0,0,0,.3-.594.764.764,0,0,0-.3-.643,3.055,3.055,0,0,0-.933-.424,2.484,2.484,0,0,1-1-.54,1.124,1.124,0,0,1-.339-.848,1.234,1.234,0,0,1,.424-.933,1.552,1.552,0,0,1,1.1-.4,1.6,1.6,0,0,1,1.028.316,1.465,1.465,0,0,1,.515.692l-.584.243a.859.859,0,0,0-.31-.438,1.088,1.088,0,0,0-1.265,0,.624.624,0,0,0-.26.509.58.58,0,0,0,.24.469,2.311,2.311,0,0,0,.705.344,5.893,5.893,0,0,1,.616.23,2.785,2.785,0,0,1,.5.3,1.173,1.173,0,0,1,.383.459,1.488,1.488,0,0,1,.129.636,1.364,1.364,0,0,1-.149.647,1.223,1.223,0,0,1-.4.452,2,2,0,0,1-1.116.339Z" transform="translate(-52.592 -16.852)"/><path class="j" d="M64.825,21.978h-.64V17h1.7a1.573,1.573,0,0,1,1.1.424,1.448,1.448,0,0,1,0,2.121,1.573,1.573,0,0,1-1.1.424H64.825Zm0-2.63h1.07a.825.825,0,0,0,.647-.271.856.856,0,0,0,0-1.2.823.823,0,0,0-.647-.272h-1.07Z" transform="translate(-53.479 -16.877)"/><path class="j" d="M73.086,21.312a2.584,2.584,0,0,1-3.648,0,2.69,2.69,0,0,1,0-3.692,2.577,2.577,0,0,1,3.648,0,2.681,2.681,0,0,1,0,3.688Zm-3.178-.417a1.915,1.915,0,0,0,2.7,0,2.121,2.121,0,0,0,0-2.857,1.915,1.915,0,0,0-2.7,0A2.121,2.121,0,0,0,69.908,20.894Z" transform="translate(-54.248 -16.854)"/><path class="j" d="M75.951,21.978V17h.779l2.419,3.872h.027l-.027-.959V17h.64v4.978h-.668l-2.534-4.061h-.027l.027.96v3.1Z" transform="translate(-55.483 -16.877)"/><path class="j" d="M81.951,21.978V17h.636v4.978Z" transform="translate(-56.506 -16.877)"/><path class="j" d="M84.1,21.978V17h1.8a1.459,1.459,0,0,1,1.011.386,1.251,1.251,0,0,1,.424.97,1.081,1.081,0,0,1-.185.625,1.155,1.155,0,0,1-.49.411v.027a1.273,1.273,0,0,1,.6.43,1.137,1.137,0,0,1,.237.71,1.306,1.306,0,0,1-.449,1.018,1.532,1.532,0,0,1-1.061.4Zm.639-2.844H85.9a.765.765,0,0,0,.584-1.285.715.715,0,0,0-.559-.238H84.737Zm0,2.232h1.287a.764.764,0,0,0,.594-.255.827.827,0,0,0,.229-.563.837.837,0,0,0-.855-.813H84.736Z" transform="translate(-56.871 -16.877)"/><path class="j" d="M89.241,21.978V17h.64v4.366h2.154v.612Z" transform="translate(-57.748 -16.877)"/><path class="j" d="M96.488,17.612H94.222v1.579h2.043v.594H94.222v1.579h2.266v.612H93.582V17h2.906Z" transform="translate(-58.487 -16.877)"/><path class="j" d="M103.209,17.612h-2.267v1.579h2.044v.594h-2.044v1.579h2.267v.612H100.3V17h2.906Z" transform="translate(-59.631 -16.877)"/><path class="j" d="M105.012,21.978V17h.778l2.419,3.872h.027l-.027-.959V17h.641v4.978h-.668l-2.531-4.06h-.027l.027.96v3.1Z" transform="translate(-60.434 -16.877)"/></g></g></svg>